<svg width="106" height="97" viewBox="0 0 106 97" fill="none" xmlns="http://www.w3.org/2000/svg">
<path d="M52.6 6.90002H50.2V83.2H52.6V6.90002Z" fill="#333399"/>
<path d="M52.7 6.90002H50.2V83.2H52.7V6.90002Z" fill="#333399"/>
<path d="M36.5 27.5C33.4 25.9 29.8 25.2 25.8 25.2C22.2 25.2 19 25.8 17 26.3C19.1 18.4 32.2 10.2 42.3 5.20001C36.7 12.8 36.3 22.6 36.5 27.5Z" fill="#333399"/>
<path d="M38.4 8.9C35.7 14.7 35 20.9 35 25.2C32.3 24.2 29.2 23.7 25.8 23.7C23.5 23.7 21.3 24 19.5 24.3C22.4 19 30.2 13.4 38.4 8.9ZM50.3 0C50.3 0 15.2 13.8 15.2 28.4C15.2 28.4 19.9 26.7 25.8 26.7C29.8 26.7 34.4 27.5 38.2 30.4C38.2 30.3 35.2 8.8 50.3 0Z" fill="#333399"/>
<path d="M67 27.5C67.2 22.6 66.8 12.8 61.2 5.20001C71.3 10.2 84.4 18.4 86.5 26.3C84.5 25.8 81.3 25.2 77.7 25.2C73.6 25.2 70 25.9 67 27.5Z" fill="#333399"/>
<path d="M65.1 8.9C73.2 13.4 81.1 19 84 24.2C82.2 23.9 80 23.6 77.7 23.6C74.3 23.6 71.3 24.1 68.5 25.1C68.4 20.9 67.8 14.7 65.1 8.9ZM53.2 0C68.3 8.8 65.3 30.3 65.3 30.3C69.2 27.5 73.7 26.6 77.7 26.6C83.5 26.6 88.3 28.3 88.3 28.3C88.2 13.8 53.2 0 53.2 0Z" fill="#333399"/>
<path d="M43.2 25.9L51.6 6.5L60.6 25.9H43.2Z" fill="#333399"/>
<path d="M51.7 10.2L58.3 24.5H45.5L51.7 10.2ZM51.6 4.29999C51.2 4.29999 50.9 4.49999 50.7 4.89999L41.5 26C41.2 26.7 41.7 27.4 42.4 27.4H61.3C62 27.4 62.5 26.6 62.2 26L52.5 4.89999C52.4 4.49999 52 4.29999 51.6 4.29999Z" fill="#333399"/>
<path d="M5.5 83.7C3.3 83.7 1.5 81.9 1.5 79.7C1.5 77.5 3.3 75.7 5.5 75.7H99.8C102 75.7 103.8 77.5 103.8 79.7C103.8 81.9 102 83.7 99.8 83.7H5.5Z" fill="#333399"/>
<path d="M99.8 77.2C101.2 77.2 102.3 78.3 102.3 79.7C102.3 81.1 101.2 82.2 99.8 82.2H5.5C4.1 82.2 3 81.1 3 79.7C3 78.3 4.1 77.2 5.5 77.2H99.8ZM99.8 74.2H5.5C2.5 74.2 0 76.7 0 79.7C0 82.7 2.5 85.2 5.5 85.2H99.8C102.8 85.2 105.3 82.7 105.3 79.7C105.3 76.7 102.9 74.2 99.8 74.2Z" fill="#333399"/>
<path d="M60 77.7L103.7 50.3" stroke="#333399" stroke-width="3" stroke-miterlimit="10"/>
<path d="M91.7 57.9L99.7 80" stroke="#333399" stroke-width="3" stroke-miterlimit="10"/>
<path d="M9.6 83V96.4" stroke="#333399" stroke-width="3" stroke-miterlimit="10"/>
<path d="M96.7 83V96.4" stroke="#333399" stroke-width="3" stroke-miterlimit="10"/>
</svg>
