<?xml version="1.0" encoding="utf-8"?>
<!-- Generator: Adobe Illustrator 21.0.0, SVG Export Plug-In . SVG Version: 6.00 Build 0)  -->
<svg version="1.1" id="Layer_2" xmlns="http://www.w3.org/2000/svg" xmlns:xlink="http://www.w3.org/1999/xlink" x="0px" y="0px"
	 viewBox="0 0 400 400" style="enable-background:new 0 0 400 400;" xml:space="preserve">
<style type="text/css">
	.st0{display:none;fill:none;stroke:#000000;stroke-width:3;stroke-miterlimit:10;}
	.st1{display:none;fill:url(#SVGID_1_);}
	.st2{fill:url(#SVGID_2_);}
	.st3{fill:none;stroke:#000000;stroke-width:3;stroke-miterlimit:10;}
	.st4{font-family:'VT323-Regular';}
	.st5{font-size:30px;}
</style>
<path class="st0" d="M85.3,141.9v116.5c0,5.4,2.9,10.4,7.6,13.1l100.9,58.2c4.7,2.7,10.4,2.7,15.1,0l100.9-58.2
	c4.7-2.7,7.6-7.7,7.6-13.1V141.9c0-5.4-2.9-10.4-7.6-13.1L208.8,70.5c-4.7-2.7-10.4-2.7-15.1,0L92.8,128.8
	C88.1,131.5,85.3,136.5,85.3,141.9z"/>
<path class="st0" d="M335.9,199.9V253c0,5.4-2.9,10.4-7.6,13.1l-117,67.5c-4.7,2.7-10.4,2.7-15.1,0l-117-67.5
	c-4.7-2.7-7.6-7.7-7.6-13.1v-1"/>
<path class="st0" d="M71.8,175v-49.8c0-5.4,2.9-10.4,7.6-13.1l116.9-67.5c4.7-2.7,10.4-2.7,15.1,0l116.9,67.5
	c4,2.3,6.7,6.3,7.4,10.8"/>
<linearGradient id="SVGID_1_" gradientUnits="userSpaceOnUse" x1="202.8108" y1="42.6667" x2="202.8108" y2="340.6674">
	<stop  offset="0" style="stop-color:#7F47DD"/>
	<stop  offset="0.1919" style="stop-color:#662D91"/>
	<stop  offset="0.4" style="stop-color:#7F47DD"/>
	<stop  offset="0.7919" style="stop-color:#FFFFFF"/>
</linearGradient>
<path class="st1" d="M318.8,178.3c-3.8-59.1-54.3-105.8-116-105.8s-112.2,46.8-116,105.8c-0.2,2.4-0.2,4.8-0.2,7.2
	c0,2.4,0.1,4.8,0.2,7.2v50.7c0,5.4,2.9,10.4,7.6,13.1l100.9,58.2c4.7,2.7,10.4,2.7,15.1,0l100.9-58.2c4.7-2.7,7.6-7.7,7.6-13.1
	v-50.7c0.2-2.4,0.2-4.8,0.2-7.2C319.1,183.1,319,180.7,318.8,178.3z"/>
<path class="st0" d="M85.7,173.6c0.1-0.7,0.1-1.3,0.2-1.9C92,114.8,141.4,70.5,201.5,70.5c51,0,94.3,31.9,110,76.4
	c0.4,1.2,0.8,2.4,1.2,3.6"/>
<path class="st0" d="M86.7,175.6c0.1-0.7,0.1-1.3,0.2-1.9C93,116.8,142.4,72.5,202.5,72.5c61.7,0,112.2,46.8,116,105.8
	c0.2,2.4,0.2,4.8,0.2,7.2s-0.1,4.8-0.2,7.2v50.7c0,5.4-2.9,10.4-7.6,13.1l-100.9,58.2c-4.7,2.7-10.4,2.7-15.1,0L94.1,256.5
	c-4.7-2.7-7.6-7.7-7.6-13.1v-2.1v-2.6"/>
<g id="Layer_1">
</g>
<g>
	<linearGradient id="SVGID_2_" gradientUnits="userSpaceOnUse" x1="198.7705" y1="41.6667" x2="198.7705" y2="339.6674">
		<stop  offset="0" style="stop-color:#F7931E"/>
		<stop  offset="0.2568" style="stop-color:#FBB03B"/>
		<stop  offset="0.4" style="stop-color:#FCEE21"/>
		<stop  offset="0.7919" style="stop-color:#FFFFFF"/>
	</linearGradient>
	<path class="st2" d="M314.8,177.3c-3.8-59.1-54.3-105.8-116-105.8s-112.2,46.8-116,105.8c-0.2,2.4-0.2,4.8-0.2,7.2
		c0,2.4,0.1,4.8,0.2,7.2v50.7c0,5.4,2.9,10.4,7.6,13.1l100.9,58.2c4.7,2.7,10.4,2.7,15.1,0l100.9-58.2c4.7-2.7,7.6-7.7,7.6-13.1
		v-50.7c0.2-2.4,0.2-4.8,0.2-7.2C315,182.1,314.9,179.7,314.8,177.3z"/>
	<path class="st3" d="M315.3,193.8c0,1.5,0.1-1.3,0,0.2v1.8v48.9c0,5.4-2.9,10.4-7.6,13.1L206.8,316c-4.7,2.7-10.4,2.7-15.1,0
		L90.8,257.8c-4.7-2.7-7.6-7.7-7.6-13.1v-2V240"/>
	<path d="M169.2,319.9c2.8-2.1,5.7-3.4,8.7-4.3c3-0.8,6-1.4,9-2.2c-1.4-6.9-9-14.5-15.4-15.2c1.3,2.8,2.6,5.6,4,8.5
		c-3.3-0.7-4.9-2.9-6-5.9c-0.4,3.4-0.7,6.7-1.1,10c-1.8-1-2.5-2.4-2.3-4.5c-1.1-0.3-1.2-0.8-0.5-5.5c-1.4,0.8-2.6,1.5-3.8,2.2
		c-0.4-2.2,0.4-3.6,3.7-6.2c-0.8-0.3-1.5-0.6-2.1-0.9c1-1.1,1.7-1.2,3.9-0.7c-0.1-1-0.4-2-0.4-3c0-1,0.2-1.9,0.3-2.9
		c0.1,0,0.3,0,0.4,0c0.6,1.3,1.2,2.5,1.8,3.7c0.8-1.3,1.4-2.8,2.4-3.6c1.1-0.9,2.8-1,4.2-1.5c0.1,0.1,0.2,0.3,0.3,0.4
		c-0.9,0.9-1.7,1.8-2.3,2.4c-0.5,1-0.8,1.8-1.1,2.4c1.3,0,2.6,0,3.9,0c0,0.1,0,0.2,0.1,0.3c-0.8,0.5-1.5,1-2.3,1.5
		c0,0.1,0,0.3,0.1,0.4c3.5-0.8,6.3,0.3,8.5,3.3c-3.3-1.5-6.5-2.3-10-1.4c6.3,1.7,10.5,6,13.8,11.4c-2.3-10.9-2.9-21.9-0.7-32.9
		c-0.1-0.1-0.3-0.1-0.4-0.2c-1.1,1.5-2.3,2.9-3.7,4.7c-0.6,2.3-2.8,4.2-4.3,6.6c-0.5-2.1-1.2-4.2,0.5-5.7c-0.1-0.6-0.4-1.2-0.3-1.4
		c1.1-1.6,2.2-3.2,3.4-4.6c0.5-0.5,1.4-0.7,2.1-1c0-0.2,0-0.3-0.1-0.5c-0.5,0-1,0.1-1.6,0.1c-0.9,0-1.9,0-2.8,0.1
		c-0.4,0-0.8,0.5-1.2,0.6c-1.3,0.3-2.5,0.4-3.8,0.8c-0.9,0.2-1.8,0.7-2.7,1.1c0.3-2.4,1.9-4.1,4.2-4.3c0.5-2.3,2.6-1.5,3.9-1.8
		c1.5-0.3,3.2,0.3,4.8,0.5c-1.5-2.1-4-2.8-6.1-4.1c1.5-0.9,2.5-1,3.7-0.5c1,0.4,2.2,0.7,3.4,1.1c0-0.6,0-1.5,0-2.3
		c0-0.8,0.1-1.7,0.1-2.6c1.5,1.1,1.6,1.3,3.1,6.8c1.9-1.5,3.6-3.2,6.4-2.4c-1.5,1.3-2.8,2.5-4.2,3.7c0.1,0.1,0.1,0.2,0.2,0.3
		c1.3-0.2,2.6-0.5,3.9-0.5c1.2,0,2.4,0.5,3.9,0.9c0.3-0.3,0.6-0.8,1-1.3c0.8-0.8,1.6-1.7,3-1.2c0.4-1.6,1.8-1,2.8-1.2
		c0.7-0.1,1.4,0.1,2.1,0.2c0.1-0.2,0.1-0.3,0.2-0.5c-1.6-1-3.3-1.9-4.9-2.9c1.8-1,2.4-0.9,6.8,1.1c0.1-2.6-0.1-5.2,1.7-7.8
		c0.4,2,0.7,3.7,1.1,5.3c1-0.5,2.2-1,3.1-1.7c1.3-1.1,2.6-0.9,4.3-0.5c-2.7,1.8-4.6,3.9-6.4,6.3c2.9-2.1,6.1-3,9.7-2.1
		c0.1,0,0.1,0.5,0.1,0.8c2.7-0.6,4.1,1.2,5.7,3.5c-4.8-0.8-9.2-0.7-13.6,0c3.5,0.6,5.9,2.6,7.6,5.7c-0.4,0.1-0.7,0.3-1,0.4
		c2.6,1.3,2.3,3.6,2.2,5.9c-2-2.1-4.5-3.6-5.6-5.7c-1.7-1.5-3.2-2.8-4.7-4.1c-0.1,0.1-0.3,0.1-0.4,0.2c4.5,10.5,6,21.6,6.1,33
		c2.3-5.9,5.6-10.9,11.7-13.8c-2.5-0.5-4.7,0.2-9.9,3.2c1.5-3.4,4.2-4.9,7.9-4.9c0-0.1,0-0.3,0-0.4c-0.9-0.3-1.8-0.6-2.7-1
		c0-0.1,0-0.2,0-0.3c1.2-0.3,2.5-0.5,3.9-0.8c-0.4-0.5-0.9-1.3-1.3-2c-1-0.7-2-1.4-3.1-2.2c4-1.1,5.9,0.1,8,3.7
		c0.4-1.5,0.7-2.9,1.1-4.3c1.2,0.8,1.2,0.8,1.5,5.4c1.4-0.1,2.7-0.1,4.1-0.2c0,0.2,0,0.3,0.1,0.5c-0.6,0.4-1.2,0.9-2,1.4
		c2.6,1.1,4.8,2.5,5.1,5.5c-1.4-0.5-2.7-0.9-4.4-1.5c0.5,1.3,0.9,2.4,1.1,3.4c0.2,0.8,0.8,1.8-0.6,2.2c1.3,2-0.1,3.5-1.2,5.3
		c-1.1-3.5-2.1-6.9-3.2-10.3c-0.4,1.5-0.4,3.2-1.2,4.1c-1,1.1-1.5,3.2-3.6,3c0.7-3,1.4-6,2.2-9.3c-0.7,0.3-1.1,0.5-1.6,0.7
		c-6,3.4-9.1,8.8-10.6,15.3c-0.5,2.1-0.6,4.3-0.9,6.4c-0.1,0.9,0.2,1.3,1.1,1.6c2.7,1,5.4,2.2,8.1,3.3c0.6,0.3,1.1,0.7,2.1,1.4
		C210.2,319.9,189.9,319.9,169.2,319.9z M188,276.3c-2.7,11.3-0.4,27.5,3.1,36.9c1-0.1,2.1-0.3,3.1-0.2c1.3,0.1,1.8-0.6,2.2-1.7
		c0.7-1.6,1.1-3.3,1.8-4.9c1.4-3.1,2.6-6.4,3.8-9.6c-1.3-0.9-2.2-2.4-4-1.9c-0.3,0.1-0.8-0.6-1.2-0.9c-0.1-0.1-0.2-0.3-0.3-0.4
		c-0.5,0.1-0.9,0.1-1.4,0.2c-0.1-0.2-0.1-0.3-0.2-0.5c0.5-0.3,1-0.8,1.5-0.9c1.6-0.2,3.2-0.3,4.8-0.5c1.3-0.1,2.8,0.1,3.3-1.1
		c0.6,1,1.2,2.1,1.9,3c1.1,1.4,2.3,2.6,3.4,4c0.3,0.4,0.3,1.1,0.4,1.7c-0.2,0-0.3,0.1-0.5,0.1c-0.3-0.4-0.5-0.8-0.8-1.2
		c-1.2,0.5-2.1,0.4-2.8-0.9c-0.6-1-3.4-0.6-3.8,0.5c-1.3,3.3-2.6,6.6-3.9,10c0.4,0.2,0.7,0.5,1.1,0.7c1.7-2,3.3-3.9,5-5.8
		c0.3-0.3,0.7-0.8,1-0.8c1.7-0.1,3.3,0,5.3,0c-1.5,2.9-2.8,5.5-4,8c0.3,0.3,0.8,0.7,1.3,1.2c2.2,1.9,4.8,2.3,7.7,2.4
		c1.8-14.1,1.4-27.8-3.7-41.2c-0.1,0-0.3,0-0.4,0c-0.1,3.5-0.3,7.1-0.4,11c-3-3.8-3.7-7.4-1.7-11.6c-1,0.9-1.8,1.9-2.6,3
		c-0.7,0.9-1.3,1.9-1.9,3c-0.4,1.5-0.9,3.2-1.3,4.9c-0.2,0-0.4,0-0.7,0c-0.3-1.5-0.8-3-0.8-4.4c0-2.4,0.1-2.5-2.3-3.3
		c-0.9-0.3-1.8-0.3-2.7-0.6c-1.1-0.3-2.2-0.7-3.4-1c0,0.1-0.1,0.3-0.1,0.4c0.9,0.8,2.5,0.9,2.5,2.7c2.1,0.7,3,4.8,1.4,8.1
		c-0.8-1.6-1.6-3.1-2.4-4.7c-0.7-0.7-1.5-1.6-2.3-2.4c-0.9-0.9-1.9-1.6-2.9-2.4c-0.1,0.1-0.2,0.2-0.3,0.3c3.4,4.1,2.5,8.6,0.7,10.9
		C189.6,283,188.8,279.7,188,276.3z M205,271.3c-0.5,0.1-1,0.3-1.4,0.4c-0.5,0.2-1,0.4-1.5,0.6c-0.3,0.2-0.8,0.3-1,0.6
		c-0.1,0.2-0.1,0.7,0.1,0.9c0.3,0.6,0.8,1.1,1.1,1.5c0.4-0.3,0.8-0.5,1.1-0.7C203,273,204.4,272.5,205,271.3z M199.4,311.9
		c0.7-0.5,1.1-0.8,1.8-1.2c-0.6-0.4-1-0.6-1.5-1c-0.8,1.1-1.6,2-2.5,3.2c1.7-0.1,3.1-0.2,4.4-0.2c0-0.2,0-0.3,0-0.5
		C200.9,312.1,200.3,312,199.4,311.9z M209.2,313.2c-2.2-2.5-3.3-2.7-5.2-1.4C205.4,313.4,207.4,312.8,209.2,313.2z M205.5,302.9
		c-1.3,1.5-2.3,2.7-3.4,4C204.5,307.4,205.2,306.5,205.5,302.9z M201.8,310.3c0.1-0.1,0.3-0.2,0.4-0.3c-0.1-0.8-0.2-1.6-0.4-2.8
		c-0.7,0.8-1.1,1.4-1.7,2.1C200.8,309.7,201.3,310,201.8,310.3z"/>
</g>
<g>
	<path d="M93,182c-0.5-1.7-1.7-3.1-3.6-4.1c-2.8-1.5-6.1-1.8-10-0.7c-3.4,0.9-7,2.7-10.7,5.3c-2,1.4-3.5,2.9-4.8,4.7
		c-1.9,2.8-2.5,5.2-2,7.3c0.8,2.8,3.3,4.9,7.5,6.2c1.6,0.5,4.6,1.1,9.2,1.8c4.6,0.8,7.9,1.5,10.1,2.1c3.3,1,5.8,2.3,7.4,4
		c1.6,1.7,2.6,3.4,3.1,5c0.6,2.4,0.5,5.1-0.4,8c-1.6,5.2-4.6,10.2-9.2,14.9c-5.2,5.4-12.2,9.3-20.9,11.7c-8.4,2.3-15.7,1.9-21.8-1
		c-4.7-2.2-7.8-5.9-9.2-11.1c-0.9-3.3-0.7-7.2,0.7-11.8c1.3-4.6,3.5-8.2,6.5-10.7c0.6-0.5,1.2-0.7,1.5-0.7s0.2,0.5-0.5,1.6
		c-1.6,2.2-2.8,4.4-3.5,6.8c-1.6,5-1.7,9.9-0.3,14.9c0.9,3.3,2.6,5.9,5.1,7.8c4.5,3.5,10.8,4.4,19,2.8c0.9-0.1,2.3-0.5,4.1-1
		c1.8-0.5,4.2-1.5,7.1-3c2.9-1.5,5.6-3.4,8.1-5.6c5.3-4.9,8.2-10.3,8.6-15.9c0.2-1.7,0-3.3-0.3-4.7c-0.9-3.3-3.1-5.8-6.7-7.5
		c-1.9-0.8-5.6-1.6-11.1-2.4c-5.4-0.8-9.2-1.5-11.1-2.1c-4.4-1.5-7-4-7.9-7.4c-0.8-3,0.1-6.3,2.6-10.1c3.7-5.3,9.9-9.2,18.6-11.5
		c4.1-1.1,7.6-1.4,10.5-0.9c2.9,0.5,5,1.9,6.2,4.2c0.2,0.5,0.4,0.9,0.5,1.4c0.5,1.9,0.1,3.8-1.2,5.8c-0.9,1.3-2.3,2.5-4.2,3.6
		c-0.8,0.5-1.3,0.5-1.5,0.1c-0.3-0.6,0.2-1.1,1.5-1.6c2.2-0.9,3.3-2.4,3.3-4.6C93.2,183,93.2,182.5,93,182z"/>
	<path d="M106.7,226.4c-0.6-2.1-0.3-4.8,0.6-8.2c-0.8,0.2-1.1-0.1-1-1l0.6-2.9c0.8-3.6,1.4-6.6,1.9-9c0.2-1.1,1-1.9,2.4-2.3l4.4-1.2
		c-1.4,1.7-2.5,4.6-3.3,8.7c-0.8,4.1-1.4,7.2-1.8,9.5c-0.4,2.3-0.5,4-0.2,5s0.7,1.8,1.1,2.1c0.5,0.3,1,0.4,1.7,0.3
		c0.9-0.2,1.9-1.6,3-3.9c1.7-3.7,3.6-10.9,5.7-21.7c0.3-1.2,1.1-1.9,2.4-2.3l3.9-1c-0.8,1.1-1.4,2.2-1.8,3.2c-0.4,1-0.8,2.8-1.2,5.3
		c-1.3,6.6-1.9,10.8-1.7,12.8c0,0.7,0.1,1.4,0.3,1.9c0.4,1.5,1.2,2.2,2.2,2c2.6-0.7,4.7-5.6,6.4-14.6c0.1-0.8,0.3-1.1,0.7-1
		c0.3,0.1,0.5,0.2,0.6,0.5c0.1,0.2,0,0.9-0.2,1.8c-0.2,1-0.4,1.9-0.6,2.9c-0.2,0.9-0.5,2.2-1,3.9c-0.5,1.6-0.9,3-1.4,4
		c-1.3,2.6-2.9,4.2-4.7,4.7s-3.3,0-4.4-1.4c-0.5-0.6-0.9-1.5-1.2-2.6c-0.3-1.1-0.4-2.5-0.4-4.3c-1.9,7.1-4.3,11.1-7.3,11.9
		c-2.6,0.7-4.4,0-5.4-2C106.9,227,106.8,226.8,106.7,226.4z"/>
	<path d="M151.5,193.4c-3.1,12-4.3,19.6-3.4,22.7c0.3,1.3,1,1.8,1.9,1.5c2.5-0.7,4.6-5.7,6.5-15.1c0.1-0.8,0.3-1.1,0.7-1
		c0.3,0.1,0.5,0.2,0.6,0.5c0.1,0.2,0,0.6-0.1,0.9c-1.2,5.8-2.4,10-3.6,12.4c-1.2,2.4-2.7,3.9-4.5,4.3c-1.8,0.5-3.3,0.2-4.5-0.9
		c-0.6-0.5-1.1-1.3-1.4-2.4c-0.3-1.1-0.4-2.5-0.3-4.1c0.1-1.7,0.7-4.5,1.9-8.6c0.3-1,0.4-1.8,0.2-2.3c-0.1-0.5-0.6-0.6-1.4-0.4
		c-0.8,0.2-2.1,1.7-3.8,4.5c-2.6,4.1-4.7,9.8-6.2,17c-0.2,0.6-0.4,0.9-0.7,1.2c-0.3,0.2-1,0.5-2.1,0.8c-1,0.3-1.7,0.6-2,0.9
		c0.4-1.7,1-5.3,2-10.7c1.8-9.5,3.1-15,4-16.6c0.4-0.7,1.1-1.2,2.1-1.5c0.2-0.1,0.7-0.1,1.5-0.2c0.8-0.1,1.4-0.2,1.8-0.4
		c-1.5,1.4-3.2,6.7-5.1,15.9c1.5-3.4,3-6.2,4.4-8.3c1.4-2.2,3.2-4.3,5.4-6.4c2.2-2.1,3.9-3.3,5.1-3.7
		C151,193.4,151.2,193.4,151.5,193.4z"/>
	<path d="M229.3,139.1c1.1,4.2,0.9,8.9-0.5,14.2c-1.5,5.3-4.2,10.3-8,15c-3.9,4.7-8.2,8.1-13.1,10.4c-1.3,6.7-2.3,11.4-3,14.1
		l-0.9,2.9c10.2-0.2,19,1.3,26.6,4.4c3.8,1.6,6.8,4,8.9,7.3c1.1,1.7,1.8,3.2,2.1,4.5c0.4,1.3,0.4,2.5,0.1,3.5
		c-0.3,1-0.7,1.8-1.3,2.3s-1,0.8-1.3,0.9c-0.3,0.1-0.5,0-0.5-0.2c-0.1-0.2,0-1,0.3-2.4c0.2-1.3,0.1-2.8-0.3-4.4
		c-0.4-1.6-1.2-3.3-2.4-5c-1.2-1.7-2.9-3.2-5.2-4.3c-2.3-1.1-5.2-2-8.8-2.5c-3.6-0.5-6.7-0.8-9.3-0.8c-2.5,0-5.9,0.2-10.1,0.5
		c-2.5,6.8-5.8,11.9-9.6,15.2c-2.3,2-4.5,3.3-6.5,3.8c-2,0.6-4,0.6-5.8,0.2c-3.1-0.6-5-2.3-5.8-5c-0.7-2.7,0.4-5.6,3.5-8.7
		c3.4-3.5,8.6-6.2,15.6-8.1c2.5-0.7,4.8-1.1,6.9-1.3c1.3-4,2.5-9.3,3.8-16c-0.3,0.1-0.6,0.1-0.8,0.2c-3,0.8-6,1.1-8.9,0.8
		s-5.3-1.1-7.3-2.4c-2.6-1.7-4.3-4-5.1-6.8c-0.4-1.5-0.5-3.2-0.2-5.1c0.3-1.9,1.5-4.1,3.6-6.6c2.1-2.5,5-4.7,8.7-6.7
		c0.6-0.3,1.1-0.5,1.5-0.6c0.4-0.1,0.7-0.1,0.9,0.1c0.2,0.2,0,0.5-0.4,0.8c-0.4,0.3-0.9,0.6-1.5,0.9c-2,0.8-3.7,2-5.2,3.6
		c-2.5,2.8-3.9,6.4-4,10.8c0,1,0.1,2,0.3,2.9c0.2,0.9,0.7,1.9,1.4,3.1c0.7,1.2,1.7,2.3,3.2,3.3c1.5,1,3.2,1.5,5.3,1.6
		c2,0,3.8-0.2,5.2-0.5c1.4-0.4,2.7-0.8,3.9-1.3l2-17.1c1.3-12,4.6-20.1,9.8-24.1c1.4-1,2.8-1.8,4.3-2.2c1.5-0.4,3-0.3,4.6,0.3
		c1.6,0.6,2.6,1.5,3.1,2.9C229,138,229.1,138.5,229.3,139.1z M199.5,199.8c-2.5,0.1-5,0.5-7.5,1.2c-2.5,0.7-5,1.7-7.4,3.2
		c-5.1,2.9-7.8,5.9-8.1,8.8c-0.1,0.5,0,1,0.1,1.5c0.3,1.3,1.3,2.1,2.9,2.5c1.6,0.4,3.2,0.4,4.8,0c2.3-0.6,4.5-1.9,6.9-3.9
		C194.6,210,197.4,205.6,199.5,199.8z M226.3,139.9c-0.5-1.8-1.6-2.5-3.3-2.1c-2.5,0.7-4.9,3.6-7.2,8.8c-1.8,4.2-3.3,9-4.6,14.5
		s-2.3,10.6-3.1,15.2c6.3-3.3,11.3-8.6,15.1-15.9C227,153.3,228,146.4,226.3,139.9z"/>
	<path d="M236.7,168.8c3.5-0.9,5.9,0.8,7.1,5.2c0.5,2,0.6,4.3,0.2,6.9c-0.5,3.5-1.8,6.9-3.8,10.1c0.9,1,2.2,1.3,3.9,0.9
		c1.3-0.3,2.4-1.3,3.2-2.9c1-1.9,1.7-3.5,2-4.8c0.3-1.3,0.6-2.3,0.7-2.9c0.1-0.6,0.3-1.5,0.5-2.6c0.2-1.1,0.3-1.8,0.3-2
		c0-0.2,0.2-0.4,0.4-0.5c0.5-0.2,0.8-0.1,0.9,0.3c0,0.1,0,0.3,0,0.5l-0.2,1.1c-0.1,0.8-0.2,1.3-0.3,1.6c-0.1,0.3-0.2,0.9-0.3,1.8
		c-0.2,0.8-0.3,1.5-0.5,2c-0.1,0.5-0.4,1.2-0.6,2c-0.3,0.8-0.5,1.5-0.8,2.1c-0.2,0.5-0.6,1.1-0.9,1.8s-0.8,1.2-1.2,1.6
		c-1,1-2,1.7-3.1,2c-2,0.5-3.7,0.3-5.1-0.6c-1.8,2.2-3.6,3.6-5.5,4.1c-3.5,0.9-5.9-0.8-7.1-5.2c-0.5-2-0.6-4.3-0.2-6.9
		c0.5-3.8,1.8-7.2,3.8-10.2C232.1,171.3,234.3,169.4,236.7,168.8z M238.1,170.8c-1.3,0.4-2.6,1.6-3.9,3.8c-1.3,2.2-2.3,5-2.9,8.4
		c-0.8,3.9-0.8,7-0.2,9.2c0.6,2.2,1.7,3.1,3.4,2.6c1.2-0.3,2.4-1.3,3.5-3c-1.1-0.9-1.8-2-2.1-3.2c-0.5-2.1,0.1-3.4,1.7-3.8
		c0.6-0.2,1.2-0.1,1.7,0.2s0.8,0.7,0.9,1c0.1,0.4,0.1,0.7,0.2,1.2c0.5-1.4,1-3.4,1.4-5.9c0.5-2.8,0.5-5.3-0.1-7.7
		C241.1,171.3,239.9,170.3,238.1,170.8z"/>
	<path d="M250.9,187.6c-0.6-2.1-0.3-4.8,0.6-8.2c-0.8,0.2-1.1-0.1-1-1l0.6-2.9c0.8-3.6,1.4-6.6,1.9-9c0.2-1.1,1-1.9,2.4-2.3l4.4-1.2
		c-1.4,1.7-2.5,4.6-3.3,8.7c-0.8,4.1-1.4,7.2-1.8,9.5c-0.4,2.3-0.5,4-0.2,5c0.3,1.1,0.7,1.8,1.1,2.1c0.5,0.3,1,0.4,1.7,0.3
		c0.9-0.2,1.9-1.6,3-3.9c1.7-3.7,3.6-10.9,5.7-21.7c0.3-1.2,1.1-1.9,2.4-2.3l3.9-1c-0.8,1.1-1.4,2.2-1.8,3.2s-0.8,2.8-1.2,5.3
		c-1.3,6.6-1.9,10.8-1.7,12.8c0,0.7,0.1,1.4,0.3,1.9c0.4,1.5,1.2,2.2,2.2,2c2.6-0.7,4.7-5.6,6.4-14.6c0.1-0.8,0.3-1.1,0.7-1
		c0.3,0.1,0.5,0.2,0.6,0.5c0.1,0.2,0,0.9-0.2,1.8c-0.2,1-0.4,1.9-0.6,2.9c-0.2,0.9-0.5,2.2-1,3.9c-0.5,1.6-0.9,3-1.4,4
		c-1.3,2.6-2.9,4.2-4.7,4.7c-1.8,0.5-3.3,0-4.4-1.4c-0.5-0.6-0.9-1.5-1.2-2.6c-0.3-1.1-0.4-2.5-0.4-4.3c-1.9,7.1-4.3,11.1-7.3,11.9
		c-2.6,0.7-4.4,0-5.4-2C251.1,188.2,251,187.9,250.9,187.6z"/>
	<path d="M295.7,154.6c-3.1,12-4.3,19.6-3.4,22.7c0.3,1.3,1,1.8,1.9,1.5c2.5-0.7,4.6-5.7,6.5-15.1c0.1-0.8,0.3-1.1,0.7-1
		s0.5,0.2,0.6,0.5c0.1,0.2,0,0.6-0.1,0.9c-1.2,5.8-2.4,10-3.6,12.4s-2.7,3.9-4.5,4.3c-1.8,0.5-3.3,0.2-4.5-0.9
		c-0.6-0.5-1.1-1.3-1.4-2.4c-0.3-1.1-0.4-2.5-0.3-4.1c0.1-1.7,0.7-4.5,1.9-8.6c0.3-1,0.4-1.8,0.2-2.3c-0.1-0.5-0.6-0.6-1.4-0.4
		c-0.8,0.2-2.1,1.7-3.8,4.5c-2.6,4.1-4.7,9.8-6.2,17c-0.2,0.6-0.4,0.9-0.7,1.2s-1,0.5-2.1,0.8c-1,0.3-1.7,0.6-2,0.9
		c0.4-1.7,1-5.3,2-10.7c1.8-9.5,3.1-15,4-16.6c0.4-0.7,1.1-1.2,2.1-1.5c0.2-0.1,0.7-0.1,1.5-0.2c0.8-0.1,1.4-0.2,1.8-0.4
		c-1.5,1.4-3.2,6.7-5.1,15.9c1.5-3.4,3-6.2,4.4-8.3c1.4-2.2,3.2-4.3,5.4-6.4c2.2-2.1,3.9-3.3,5.1-3.7
		C295.2,154.6,295.4,154.6,295.7,154.6z"/>
	<path d="M305.6,201.8c-4.5,1.2-7.3,0-8.3-3.7c-0.8-3.1,0.5-6.4,4-10c3-3,7-6.2,12.1-9.5c2.3-1.5,4-2.7,5-3.4
		c0.3-4-0.2-8.2-1.4-12.5c-0.2-0.9-0.5-1.5-0.7-1.9c-0.6,3.1-1.7,6.4-3.3,9.9c-1.9,4.2-4.3,6.3-7.2,6.3c-2.8-0.4-4.6-2.1-5.4-5.2
		c-1.1-4.1-0.3-9.2,2.5-15.3c1.5-3.3,3.7-5.7,6.6-7.3c0.8-0.5,1.5-0.8,2.4-1c2.2-0.6,4.5-0.4,6.9,0.5c0.9,0.4,1.5,0.8,1.6,1.3
		c0.1,0.4,0.1,0.9-0.1,1.4c-0.2,0.5-0.5,0.6-0.9,0.4c-0.4-0.2-0.7-0.5-0.9-0.7c-1.1-1.6-2.4-2.2-3.8-1.9c-2.6,0.7-4.9,3.2-7.1,7.7
		c-1.2,2.5-2.2,5.1-2.9,7.7c-0.8,3.3-1,5.8-0.6,7.3c0.4,1.6,1.2,2.5,2.3,2.8c0.4,0.1,0.7,0,1.1-0.1c1.1-0.3,2.3-1.4,3.5-3.4
		c1.3-2,2.3-4.3,3.1-7c0.8-2.7,1.2-4.8,1.2-6.2s0.3-2.3,0.7-2.8c0.5-0.5,1-0.8,1.7-1.1c0.7-0.2,1.1-0.5,1.3-0.7
		c1,2.1,1.8,4.5,2.6,7.5c0.8,2.9,1.2,6.4,1.2,10.3c1.8-2.2,3-4,3.6-5.5c0.6-1.5,1-2.8,1.3-4c0.3-1.2,0.5-2.3,0.7-3.4
		c0.2-1.1,0.3-1.8,0.3-2.1c0.1-0.3,0.3-0.6,0.6-0.7c0.3-0.2,0.5-0.1,0.6,0.3c0.1,0.2,0.1,0.5,0,0.9c-0.9,4.9-1.9,8.6-2.7,10.9
		c-0.9,2.3-2.4,4.4-4.6,6.2c-0.3,3.6-1.1,7.3-2.4,11.1c-1.3,3.8-3.3,7.4-6,10.7C311.9,198.8,308.9,200.9,305.6,201.8z M299.2,199
		c0.5,1.8,1.9,2.4,4.3,1.8c1.4-0.4,2.9-1.2,4.4-2.5c1.5-1.3,2.8-2.5,3.7-3.7c1.5-2.1,3.1-5.1,4.6-8.8c1.1-3,1.8-5.8,2.2-8.4
		l-2.3,1.5c-6.8,4.6-11.5,8.4-14,11.2c-1.9,2.1-2.8,4.4-2.9,6.9C299,197.8,299.1,198.5,299.2,199z"/>
	<path d="M332.9,158c-0.2,1.8-0.1,3.7,0.5,5.8c0.4,1.3,1,2.3,1.8,3c0.8,0.6,1.8,0.8,2.9,0.5c4.4-1.2,7.2-6.4,8.6-15.5
		c0.1-0.9,0.4-1.3,1-1.3c0.2,0,0.3,0.1,0.4,0.3s-0.1,1.6-0.6,4.2c-0.5,2.6-1,4.8-1.8,6.5c-1.5,4-4.1,6.5-7.7,7.5
		c-1.9,0.5-3.7,0.3-5.4-0.6c-1.7-0.9-2.8-2.4-3.4-4.6c-0.6-2.2-0.7-4.6-0.3-7.3c0.4-2.7,1.2-5.3,2.4-7.9c1.2-2.6,2.9-4.7,4.9-6.2
		c1-0.8,2-1.3,3-1.6c1-0.3,2-0.2,3,0.1c1,0.5,1.6,1.1,1.8,1.9c0.8,2.9-0.2,6.1-3,9.7c-0.8,1.1-2.1,2.2-3.9,3.4
		C335.3,157.1,333.9,157.8,332.9,158z M341.9,143.2c-0.3-1-0.8-1.3-1.5-1.1c-1.3,0.4-2.9,2.6-4.8,6.6c-1.1,2.5-1.9,5.1-2.5,8
		c0.8-0.2,1.9-0.8,3.3-1.8c1.4-1,2.6-2.1,3.5-3.4C341.9,148.5,342.6,145.7,341.9,143.2z"/>
	<path d="M352.5,133.7c0.6,2.2-0.2,4.6-2.5,7.2c1-0.2,2.3-0.5,3.9-1c1.6-0.4,3.6-1.1,6-2c0.1,0.1,0.3,0.5,0.5,1.1
		c0.2,0.6,0.1,1.6-0.1,3c-0.2,1.4-0.5,2.6-0.7,3.6c-0.2,1-0.4,2-0.6,2.9c-0.2,0.9-0.4,2-0.6,3.3c-0.2,1.3-0.3,2.5-0.4,3.5
		c-0.2,4,0.5,5.8,2.1,5.3c2-0.5,3.9-5.4,5.7-14.5c0.2-0.7,0.4-1,0.6-0.9c0.3,0.1,0.4,0.2,0.5,0.5c0.1,0.2-0.1,1-0.3,2.5
		c-0.3,1.4-0.6,2.9-1,4.5c-0.4,1.5-1.1,3.4-2.1,5.6c-1.2,2.7-2.7,4.3-4.4,4.7c-1.9,0.5-3.5-0.3-4.8-2.3c-0.3-0.4-0.5-1-0.7-1.9
		c-0.2-0.9-0.3-2.1-0.1-3.7c0.2-1.6,0.6-3.6,1.2-6c0.6-2.4,1-3.8,1-4.2c0-0.4,0-0.8-0.1-1.1c-0.4-1.5-2.5-1.8-6.4-0.8l-0.2,2.5
		c-0.9,8.8-2.4,14.9-4.4,18.3c-0.4,0.6-0.6,0.5-0.8-0.2c0-0.1,0-0.3,0-0.5c1.7-4.3,2.9-9.1,3.6-14.5c0.7-5.4,0.8-10.4,0.4-15
		c-0.1-1.6,0.4-2.5,1.4-2.8s2,0.2,2.9,1.4C352.1,132.6,352.3,133.1,352.5,133.7z"/>
</g>
<text transform="matrix(1 0 0 1 124.9209 249.667)" class="st4 st5">WEB SOLUTIONS</text>
<rect x="33.9" y="139.6" transform="matrix(0.9609 -0.277 0.277 0.9609 -40.9323 63.1016)" class="st0" width="338" height="73.8"/>
</svg>
